<svg width="41" height="43" viewBox="0 0 41 43" fill="none" xmlns="http://www.w3.org/2000/svg">
<path d="M15.2286 0C19.2674 0 23.1409 1.6827 25.9968 4.67792C28.8527 7.67315 30.4571 11.7355 30.4571 15.9714C30.4571 19.9274 29.0749 23.564 26.8023 26.3651L27.4349 27.0286H29.2857L41 39.3143L37.4857 43L25.7714 30.7143V28.7731L25.1389 28.1097C22.468 30.4931 19.0006 31.9429 15.2286 31.9429C11.1897 31.9429 7.31626 30.2602 4.46035 27.2649C1.60443 24.2697 0 20.2073 0 15.9714C0 11.7355 1.60443 7.67315 4.46035 4.67792C7.31626 1.6827 11.1897 0 15.2286 0ZM15.2286 4.91429C9.37143 4.91429 4.68571 9.82857 4.68571 15.9714C4.68571 22.1143 9.37143 27.0286 15.2286 27.0286C21.0857 27.0286 25.7714 22.1143 25.7714 15.9714C25.7714 9.82857 21.0857 4.91429 15.2286 4.91429Z" fill="#095D40"/>
</svg>
