<svg width="47" height="71" viewBox="0 0 47 71" fill="none" xmlns="http://www.w3.org/2000/svg">
<path d="M6.54718e-08 35.4188C-0.000338037 40.9798 1.30882 46.4627 3.82149 51.4236C6.33416 56.3846 9.97972 60.6841 14.463 63.9742C18.9463 67.2642 24.1414 69.4523 29.6275 70.3613C35.1137 71.2703 40.7368 70.8746 46.0417 69.2063C38.8506 66.9464 32.5681 62.4512 28.1081 56.3745C23.6481 50.2978 21.2432 42.9566 21.2432 35.4188C21.2432 27.881 23.6481 20.5399 28.1081 14.4631C32.5681 8.38644 38.8506 3.8912 46.0417 1.63132C40.7368 -0.0369676 35.1137 -0.432638 29.6275 0.476347C24.1414 1.38533 18.9463 3.57343 14.463 6.86348C9.97972 10.1535 6.33416 14.4531 3.82149 19.414C1.30882 24.3749 -0.000338037 29.8579 6.54718e-08 35.4188Z" fill="white"/>
</svg>
