<svg width="133" height="133" viewBox="0 0 133 133" fill="none" xmlns="http://www.w3.org/2000/svg">
<path d="M63.0637 70.0577C63.0637 70.0577 65.8574 68.3604 67.3222 66.8958C68.7772 65.4407 70.462 62.6737 70.4841 62.6372L70.9578 62.1635C71.909 61.2124 73.451 61.2125 74.4022 62.1635L112.232 99.9937C113.183 100.945 113.184 102.487 112.232 103.438L103.865 111.806C102.913 112.757 101.371 112.757 100.42 111.806L62.59 73.9758C61.639 73.0246 61.6389 71.4825 62.59 70.5314L63.0637 70.0577ZM68.88 62.3217C68.8635 62.3476 67.1295 65.0762 65.6718 66.5339C64.2129 67.9928 61.4813 69.7283 61.4596 69.7421L39.7726 48.0552L39.8237 48.0055C42.191 45.6383 45.1851 43.2982 47.1731 40.6147L68.88 62.3217ZM6.44333 43.2381C7.57315 42.1082 9.46151 42.3937 10.648 43.4639C12.2581 44.9162 14.5212 44.94 16.3849 43.9238C19.4925 42.2291 15.9832 39.8355 17.6334 35.1167C19.2837 30.3979 24.1973 25.8796 30.1825 22.1754C34.8545 19.284 37.9579 18.4051 43.2778 17.0309C51.398 14.9335 64.6309 15.6202 65.031 15.6416C65.0435 15.6422 65.0467 15.6423 65.0593 15.6423C65.8574 15.6406 66.0347 16.9948 65.2692 17.2208C59.9578 18.7874 52.3669 21.4706 47.604 25.0984C44.9817 27.0958 43.4702 28.6853 41.3678 30.7877C40.0468 32.1095 42.861 34.6836 45.1333 36.4135C46.2686 37.2779 46.5346 38.8997 45.7306 40.016C43.7742 42.7312 40.7499 45.0423 38.3826 47.4096C38.3658 47.4264 38.3487 47.4431 38.3315 47.4593C37.377 48.3601 35.8724 48.3436 34.9382 47.4096L31.1251 43.5965C27.9225 40.3944 22.3801 45.9047 20.8727 48.4115C19.1066 51.3488 20.3106 52.632 22.4582 54.7797C23.4093 55.7308 23.4087 57.2736 22.4575 58.2247L17.2226 63.4597C16.2714 64.4108 14.7287 64.4114 13.7775 63.4604L1.72146 51.4043C0.770467 50.4531 0.771038 48.9104 1.72215 47.9592L6.44333 43.2381Z" fill="#095D40"/>
<mask id="path-2-outside-1_620_124" maskUnits="userSpaceOnUse" x="9.88485" y="11.021" width="111.016" height="111.016" fill="black">
<rect fill="white" x="9.88485" y="11.021" width="111.016" height="111.016"/>
<path d="M106.813 24.781C107.241 24.8488 107.577 25.1846 107.645 25.6124L109.937 40.0874C110.005 40.5151 109.79 40.9383 109.404 41.1349L96.3457 47.7875C95.9597 47.9842 95.4905 47.9102 95.1842 47.6038L94.3521 46.7718C93.9616 46.3815 93.3283 46.3813 92.9379 46.7718L39.4236 100.286C39.2019 100.508 39.1007 100.821 39.126 101.133C39.322 103.55 38.4961 106.033 36.6476 107.882C33.3053 111.224 27.8864 111.224 24.544 107.882C21.2016 104.54 21.2016 99.1207 24.544 95.7783C26.3924 93.9298 28.8757 93.1033 31.2919 93.2992C31.6045 93.3246 31.9173 93.2234 32.1391 93.0016L85.6535 39.4873C86.044 39.0968 86.044 38.4636 85.6535 38.0731L84.8214 37.241C84.5153 36.9347 84.4418 36.4661 84.6384 36.0802L91.291 23.0222C91.4876 22.6362 91.9106 22.4207 92.3385 22.4884L94.9991 22.9104C95.5445 22.9967 95.9168 23.5085 95.8305 24.0539L94.2665 33.9292C94.0588 35.2403 94.9532 36.4718 96.2642 36.6796L98.6383 37.0553C99.9494 37.2629 101.181 36.3686 101.389 35.0575L102.953 25.1822C103.039 24.6369 103.551 24.2647 104.096 24.3508L106.813 24.781Z"/>
</mask>
<path d="M106.813 24.781C107.241 24.8488 107.577 25.1846 107.645 25.6124L109.937 40.0874C110.005 40.5151 109.79 40.9383 109.404 41.1349L96.3457 47.7875C95.9597 47.9842 95.4905 47.9102 95.1842 47.6038L94.3521 46.7718C93.9616 46.3815 93.3283 46.3813 92.9379 46.7718L39.4236 100.286C39.2019 100.508 39.1007 100.821 39.126 101.133C39.322 103.55 38.4961 106.033 36.6476 107.882C33.3053 111.224 27.8864 111.224 24.544 107.882C21.2016 104.54 21.2016 99.1207 24.544 95.7783C26.3924 93.9298 28.8757 93.1033 31.2919 93.2992C31.6045 93.3246 31.9173 93.2234 32.1391 93.0016L85.6535 39.4873C86.044 39.0968 86.044 38.4636 85.6535 38.0731L84.8214 37.241C84.5153 36.9347 84.4418 36.4661 84.6384 36.0802L91.291 23.0222C91.4876 22.6362 91.9106 22.4207 92.3385 22.4884L94.9991 22.9104C95.5445 22.9967 95.9168 23.5085 95.8305 24.0539L94.2665 33.9292C94.0588 35.2403 94.9532 36.4718 96.2642 36.6796L98.6383 37.0553C99.9494 37.2629 101.181 36.3686 101.389 35.0575L102.953 25.1822C103.039 24.6369 103.551 24.2647 104.096 24.3508L106.813 24.781Z" fill="#095D40"/>
<path d="M106.813 24.781L107.283 21.818L107.283 21.8179L106.813 24.781ZM107.645 25.6124L110.608 25.1431L110.608 25.1431L107.645 25.6124ZM109.937 40.0874L112.901 39.619L112.901 39.6181L109.937 40.0874ZM109.404 41.1349L110.766 43.808L110.766 43.8078L109.404 41.1349ZM96.3457 47.7875L94.9838 45.1144L94.9837 45.1145L96.3457 47.7875ZM94.3521 46.7718L96.4734 44.6504L96.4725 44.6495L94.3521 46.7718ZM39.126 101.133L36.1357 101.375L36.1358 101.376L39.126 101.133ZM36.6476 107.882L38.769 110.003L38.769 110.003L36.6476 107.882ZM24.544 107.882L22.4226 110.003L22.4227 110.003L24.544 107.882ZM24.544 95.7783L22.4226 93.6569L22.4226 93.6569L24.544 95.7783ZM31.2919 93.2992L31.0493 96.2894L31.0494 96.2894L31.2919 93.2992ZM84.8214 37.241L82.6992 39.3615L82.7 39.3623L84.8214 37.241ZM84.6384 36.0802L87.3114 37.4422L87.3115 37.4421L84.6384 36.0802ZM91.291 23.0222L88.618 21.6602L88.6179 21.6604L91.291 23.0222ZM92.3385 22.4884L92.8084 19.5255L92.8076 19.5253L92.3385 22.4884ZM94.9991 22.9104L94.5293 25.8733L94.5298 25.8734L94.9991 22.9104ZM95.8305 24.0539L98.7936 24.5232L98.7937 24.5225L95.8305 24.0539ZM94.2665 33.9292L97.2296 34.3985L97.2296 34.3985L94.2665 33.9292ZM96.2642 36.6796L95.7946 39.6426L95.7953 39.6427L96.2642 36.6796ZM98.6383 37.0553L99.1076 34.0922L99.1071 34.0921L98.6383 37.0553ZM101.389 35.0575L104.352 35.5269L104.352 35.5268L101.389 35.0575ZM102.953 25.1822L99.9896 24.7129L99.9896 24.7129L102.953 25.1822ZM104.096 24.3508L104.565 21.3877L104.564 21.3875L104.096 24.3508ZM106.813 24.781L106.344 27.744C105.489 27.6084 104.817 26.938 104.682 26.0817L107.645 25.6124L110.608 25.1431C110.337 23.4311 108.994 22.0893 107.283 21.818L106.813 24.781ZM107.645 25.6124L104.682 26.0817L106.974 40.5567L109.937 40.0874L112.901 39.6181L110.608 25.1431L107.645 25.6124ZM109.937 40.0874L106.974 40.5557C106.839 39.7008 107.269 38.8556 108.041 38.462L109.404 41.1349L110.766 43.8078C112.31 43.0209 113.171 41.3294 112.901 39.619L109.937 40.0874ZM109.404 41.1349L108.042 38.4618L94.9838 45.1144L96.3457 47.7875L97.7075 50.4606L110.766 43.808L109.404 41.1349ZM96.3457 47.7875L94.9837 45.1145C95.7543 44.7219 96.6917 44.8687 97.3055 45.4825L95.1842 47.6038L93.0629 49.7252C94.2894 50.9517 96.1651 51.2465 97.7077 50.4605L96.3457 47.7875ZM95.1842 47.6038L97.3055 45.4825L96.4734 44.6504L94.3521 46.7718L92.2308 48.8931L93.0629 49.7252L95.1842 47.6038ZM94.3521 46.7718L96.4725 44.6495C94.9115 43.0899 92.3795 43.0875 90.8166 44.6504L92.9379 46.7718L95.0592 48.8931C94.2771 49.6752 93.0116 49.6732 92.2317 48.894L94.3521 46.7718ZM92.9379 46.7718L90.8166 44.6504L37.3023 98.1647L39.4236 100.286L41.5449 102.407L95.0592 48.8931L92.9379 46.7718ZM39.4236 100.286L37.3023 98.1647C36.3934 99.0736 36.0473 100.281 36.1357 101.375L39.126 101.133L42.1162 100.892C42.1541 101.36 42.0103 101.942 41.5449 102.407L39.4236 100.286ZM39.126 101.133L36.1358 101.376C36.2637 102.953 35.7261 104.561 34.5263 105.761L36.6476 107.882L38.769 110.003C41.2661 107.506 42.3803 104.146 42.1161 100.891L39.126 101.133ZM36.6476 107.882L34.5263 105.761C32.3556 107.931 28.8361 107.931 26.6652 105.761L24.544 107.882L22.4227 110.003C26.9366 114.517 34.255 114.517 38.769 110.003L36.6476 107.882ZM24.544 107.882L26.6653 105.761C24.4945 103.59 24.4944 100.07 26.6653 97.8996L24.544 95.7783L22.4226 93.6569C17.9087 98.1709 17.9087 105.489 22.4226 110.003L24.544 107.882ZM24.544 95.7783L26.6653 97.8996C27.8655 96.6994 29.4733 96.1616 31.0493 96.2894L31.2919 93.2992L31.5344 90.3091C28.2781 90.0449 24.9192 91.1603 22.4226 93.6569L24.544 95.7783ZM31.2919 93.2992L31.0494 96.2894C32.1443 96.3782 33.3519 96.0315 34.2605 95.1229L32.1391 93.0016L30.0178 90.8803C30.4828 90.4154 31.0648 90.271 31.5343 90.3091L31.2919 93.2992ZM32.1391 93.0016L34.2605 95.1229L87.7748 41.6086L85.6535 39.4873L83.5321 37.366L30.0178 90.8803L32.1391 93.0016ZM85.6535 39.4873L87.7748 41.6086C89.3369 40.0465 89.3369 37.5139 87.7748 35.9518L85.6535 38.0731L83.5321 40.1944C82.7511 39.4134 82.7511 38.147 83.5321 37.366L85.6535 39.4873ZM85.6535 38.0731L87.7748 35.9518L86.9427 35.1197L84.8214 37.241L82.7 39.3623L83.5321 40.1944L85.6535 38.0731ZM84.8214 37.241L86.9435 35.1205C87.5583 35.7358 87.703 36.6737 87.3114 37.4422L84.6384 36.0802L81.9654 34.7182C81.1805 36.2585 81.4722 38.1335 82.6992 39.3615L84.8214 37.241ZM84.6384 36.0802L87.3115 37.4421L93.9641 24.3841L91.291 23.0222L88.6179 21.6604L81.9653 34.7184L84.6384 36.0802ZM91.291 23.0222L93.964 24.3842C93.5706 25.1562 92.7251 25.587 91.8694 25.4515L92.3385 22.4884L92.8076 19.5253C91.0962 19.2544 89.4047 20.1163 88.618 21.6602L91.291 23.0222ZM92.3385 22.4884L91.8687 25.4514L94.5293 25.8733L94.9991 22.9104L95.469 19.9474L92.8084 19.5255L92.3385 22.4884ZM94.9991 22.9104L94.5298 25.8734C93.4406 25.7009 92.6946 24.6777 92.8674 23.5853L95.8305 24.0539L98.7937 24.5225C99.139 22.3393 97.6484 20.2926 95.4684 19.9473L94.9991 22.9104ZM95.8305 24.0539L92.8675 23.5846L91.3034 33.4599L94.2665 33.9292L97.2296 34.3985L98.7936 24.5232L95.8305 24.0539ZM94.2665 33.9292L91.3034 33.4599C90.8367 36.4067 92.8467 39.1754 95.7946 39.6426L96.2642 36.6796L96.7338 33.7166C97.0597 33.7682 97.281 34.0738 97.2296 34.3985L94.2665 33.9292ZM96.2642 36.6796L95.7953 39.6427L98.1694 40.0184L98.6383 37.0553L99.1071 34.0921L96.7331 33.7165L96.2642 36.6796ZM98.6383 37.0553L98.169 40.0183C101.116 40.485 103.885 38.4754 104.352 35.5269L101.389 35.0575L98.4256 34.5881C98.4773 34.2619 98.7832 34.0408 99.1076 34.0922L98.6383 37.0553ZM101.389 35.0575L104.352 35.5268L105.916 25.6515L102.953 25.1822L99.9896 24.7129L98.4256 34.5882L101.389 35.0575ZM102.953 25.1822L105.916 25.6515C105.743 26.7415 104.72 27.4864 103.628 27.3141L104.096 24.3508L104.564 21.3875C102.382 21.043 100.335 22.5323 99.9896 24.7129L102.953 25.1822ZM104.096 24.3508L103.627 27.3139L106.344 27.7441L106.813 24.781L107.283 21.8179L104.565 21.3877L104.096 24.3508Z" fill="white" mask="url(#path-2-outside-1_620_124)"/>
</svg>
