<svg width="79" height="110" viewBox="0 0 79 110" fill="none" xmlns="http://www.w3.org/2000/svg">
<path d="M34.4753 85.6641C36.8612 84.3156 39.7675 84.2649 42.199 85.5293C43.5998 86.2577 50.8459 90.0257 53.4275 91.3682C55.4541 90.776 57.7498 90.8172 59.7361 91.4932L71.7 95.5645C73.3551 96.1277 74.7393 97.0596 75.573 98.3867C76.4371 99.7622 76.5692 101.356 76.03 102.8C74.9875 105.59 71.8495 107.153 68.3455 107.153H11.2C7.75062 107.153 4.65269 105.634 3.5603 102.917C2.99426 101.509 3.06965 99.9298 3.88159 98.54C4.66556 97.1983 6.00525 96.2416 7.61401 95.6465L18.6208 91.5752C20.4905 90.8836 22.6597 90.7696 24.6287 91.2285L34.4753 85.6641Z" fill="white" stroke="#095D40" stroke-width="4.81016"/>
<path d="M70.843 11.9263C61.7084 12.4373 52.8586 17.1799 47.1643 25.6812C41.4527 34.2084 40.1872 44.6262 42.8752 53.8989C52.0095 53.3876 60.8589 48.646 66.553 40.145C72.2647 31.6176 73.5313 21.1991 70.843 11.9263Z" fill="#72A270" stroke="#72A270" stroke-width="3.4983"/>
<path d="M42.021 49.5653C42.1007 47.6339 43.3229 45.5711 44.4787 43.9853C46.7385 40.8849 49.7713 38.3838 52.4283 35.5746C54.601 33.2774 57.3184 31.4132 59.4677 29.1236C60.1946 28.3493 61.4535 27.6837 61.9557 26.7827" stroke="#095D40" stroke-width="4.81016" stroke-linecap="round"/>
<path d="M10.8151 2.39574C23.5796 3.36351 35.6702 10.5377 42.7901 22.7876C49.9053 35.0295 50.4387 49.5497 45.4647 61.8485L44.985 63.0333L43.7112 62.9374C30.9467 61.9696 18.8561 54.7953 11.7362 42.5455C4.62091 30.3035 4.08748 15.7825 9.06161 3.48361L9.54131 2.29885L10.8151 2.39574Z" fill="#72A270" stroke="white" stroke-width="3.4983"/>
<path d="M28.5269 32.9126C29.2292 33.5616 29.7406 34.4487 30.2971 35.2165C31.9112 37.4438 33.5849 39.6648 35.041 41.9999C36.3624 44.119 37.5249 46.2868 38.6312 48.5212C40.5867 52.4706 42.6844 57.2228 42.6037 61.7183C42.5479 64.8202 42.5234 67.8112 42.0084 70.8872C41.705 72.6989 41.378 74.4941 41.0231 76.2941C40.7792 77.5313 40.7153 78.8165 40.4148 80.0317C40.3127 80.4446 39.7982 82.2828 40.1331 82.5781" stroke="#095D40" stroke-width="4.81016" stroke-linecap="round"/>
<path d="M28.6528 31.3813C28.6528 30.4455 28.9082 29.547 29.1053 28.639C29.2164 28.1276 29.3092 27.6137 29.4253 27.1033C29.5845 26.4024 29.6054 25.6814 29.7612 24.9802C29.9302 24.2197 30.04 23.4515 30.232 22.695C30.3251 22.3281 30.4007 21.9564 30.4811 21.5866C30.5125 21.4422 30.5862 21.2876 30.5862 21.1387" stroke="#095D40" stroke-width="4.81016" stroke-linecap="round"/>
<path d="M27.7068 32.3677C27.1054 32.3445 26.5099 32.0349 25.9243 31.9152C25.187 31.7645 24.4504 31.5898 23.7167 31.4216C23.1787 31.2982 22.6639 31.0705 22.1445 30.8868C21.8663 30.7885 21.5741 30.7275 21.2921 30.64C21.1613 30.5994 21.0178 30.5166 20.8784 30.5166" stroke="#095D40" stroke-width="4.81016" stroke-linecap="round"/>
</svg>
