<svg width="127" height="123" viewBox="0 0 127 123" fill="none" xmlns="http://www.w3.org/2000/svg">
<path d="M22.9013 32.2082C22.9013 32.2082 44.5299 42.4942 45.7741 42.9863C47.0182 43.4883 48.7067 42.7895 49.4955 41.1851C50.2842 39.5905 61.8928 20.4161 62.4482 19.6189C63.0036 18.8216 63.4591 17.3254 65.492 18.1227C67.5249 18.92 70.1132 12.9354 70.1132 12.9354L49.3733 2.15723L39.1199 3.35808L22.1125 30.6136L22.9013 32.2082Z" fill="#095D40"/>
<path d="M24.8386 81.4395C24.8386 81.4395 54.8455 81.7651 56.645 81.7651C58.4335 81.7651 60.1116 82.2103 60.3435 84.5227C60.5643 86.8352 60.1227 113.152 60.1227 113.152L48.5858 113.26L31.4516 112.489L22.2663 108.744L15.1013 92.3395L24.8386 81.4395Z" fill="#095D40"/>
<path d="M109.988 39.3711L87.0082 52.6924C86.4684 53.0051 85.8227 54.0684 86.7965 55.757C87.7704 57.4456 98.5037 76.6875 99.361 78.1677C100.218 79.6478 101.182 81.4407 99.6786 82.5039C98.1755 83.5567 101.933 87.3717 101.933 87.3717L112.561 86.2043L119.759 81.6596L125.125 72.8829C125.125 72.8829 124.162 62.5219 123.94 62.2092C123.728 61.8965 113.958 42.4356 113.958 42.4356L109.988 39.3711Z" fill="#095D40"/>
<path d="M75.847 34.0191C75.847 34.0191 64.6798 17.398 61.0878 13.477C58.2669 10.3911 55.2242 7.86531 52.5618 5.77749C50.153 3.89336 48.3887 3.54709 46.2968 3.86281C43.0005 4.36185 41.0777 5.88952 39.2288 8.9245C33.6611 18.0396 24.9767 33.0006 24.9767 33.0006C24.9767 33.0006 21.9234 32.0738 21.8706 30.1082C21.8072 28.2343 34.295 7.79402 35.5839 5.62473C36.8729 3.45543 39.0175 0.664884 44.9022 0.359349C50.7869 0.0538148 81.6577 -0.16006 83.3693 0.155659C85.0808 0.471378 89.0532 2.01942 92.6876 7.38664C96.8502 13.5279 99.502 18.9766 99.502 18.9766C99.502 18.9766 107.69 14.3019 108.546 14.8213C109.835 15.5953 97.1249 39.6002 96.1106 40.4353C95.4767 40.9649 66.8562 42.7064 66.2118 41.1584C65.7997 40.1297 75.847 34.0191 75.847 34.0191Z" fill="#72A270"/>
<path d="M109.951 40.4351C109.951 40.4351 111.462 39.1417 112.666 39.4982C113.87 39.8648 124.995 62.8003 126.105 65.0409C127.225 67.2814 127.869 72.6589 124.435 78.0363C120.991 83.4137 104.446 107.439 103.231 108.875C102.027 110.311 101.372 111.564 98.023 111.564C94.6739 111.564 82.0276 111.38 82.0276 111.38C82.0276 111.38 81.5627 120.434 81.4677 121.239C81.3726 122.043 79.978 122.583 79.0483 120.974C78.1186 119.365 64.9124 97.8451 64.9124 97.3053C64.9124 96.7655 77.8333 72.1394 79.7033 72.3839C81.0451 72.5672 80.9077 82.3341 80.9077 82.3341C80.9077 82.3341 110.014 81.7943 112.898 81.6212C115.783 81.4379 118.572 80.3685 120.061 78.2196C121.551 76.0707 124.9 70.958 122.386 65.6723C120.146 60.9671 112.434 46.4033 111.324 44.2441C110.616 42.8896 109.592 41.4638 109.951 40.4351Z" fill="#72A270"/>
<path d="M57.7598 111.4C57.3478 112.959 56.08 112.999 54.5903 113.091C53.1006 113.183 33.0166 113.091 28.6427 112.643C24.2689 112.195 20.0851 109.058 18.5109 105.565C16.9262 102.071 10.5133 91.1332 6.05485 82.0792C1.59643 73.0252 0.57163 70.4281 0.286376 68.3607C0.00112147 66.2932 2.4205 61.0991 4.83988 57.3309C7.25925 53.5626 8.92852 51.2304 8.92852 51.2304C8.92852 51.2304 0.170161 45.6697 0.0011215 44.6003C-0.115093 43.8874 8.82287 43.6328 16.4613 43.3476C23.9836 43.0624 31.6221 42.8995 32.182 43.4393C32.742 43.979 36.7355 51.9535 39.0598 56.5263C41.3841 61.0991 46.1278 69.5217 46.0327 70.3263C45.8953 71.4873 44.6698 70.9068 42.9055 70.1837C41.1411 69.4708 34.6014 66.2016 34.6014 66.2016C34.6014 66.2016 27.2587 78.3007 24.3745 83.9531C21.4903 89.6055 18.7011 95.0644 19.4407 100.085C19.895 103.12 23.7195 108.508 30.7874 109.231C37.8554 109.954 53.5655 109.496 55.4355 109.587C57.2949 109.689 58.1401 109.985 57.7598 111.4Z" fill="#72A270"/>
<path opacity="0.3" d="M12.2778 53.4922C11.0417 53.0034 8.63288 55.3153 5.30492 61.9352C2.64255 67.2209 2.52633 69.1661 3.88921 71.5493C5.06192 73.5964 7.24887 76.9776 8.21029 76.998C9.41469 77.0184 9.33017 70.1948 10.3233 65.2349C11.7179 58.2484 13.9471 54.1644 12.2778 53.4922Z" fill="white"/>
<path opacity="0.3" d="M55.3406 2.38598C54.4426 3.17019 58.7954 6.74494 60.2322 6.87734C62.1867 7.06066 84.0351 6.78568 85.6198 6.78568C87.2045 6.78568 88.1343 5.70612 86.6446 4.28029C85.1549 2.85447 83.3906 2.22303 82.1862 2.03971C81.5629 1.94805 75.8683 2.09063 69.4448 2.13137C63.3277 2.17211 56.3443 1.5203 55.3406 2.38598Z" fill="white"/>
<path opacity="0.3" d="M76.1746 82.4356C74.8539 82.955 68.9164 95.6144 68.8319 96.6023C68.7368 97.5902 72.3712 102.957 73.6707 102.774C74.9702 102.591 76.4493 96.3884 77.0092 90.8073C77.379 87.0696 77.7065 81.8348 76.1746 82.4356Z" fill="white"/>
</svg>
