<svg width="78" height="78" viewBox="0 0 78 78" fill="none" xmlns="http://www.w3.org/2000/svg">
<path d="M9.03125 64.0687L14.025 69.0625L20.4 62.7229L15.3708 57.6937M38.9583 17.7083C27.2354 17.7083 17.7083 27.2354 17.7083 38.9583C17.7083 50.6812 27.2354 60.2083 38.9583 60.2083C50.6812 60.2083 60.2083 50.6812 60.2083 38.9583C60.2083 27.2 50.6812 17.7083 38.9583 17.7083ZM67.2917 42.5H77.9167V35.4167H67.2917M57.5167 62.7229L63.8917 69.0625L68.8854 64.0687L62.5458 57.6937M68.8854 14.1667L63.8917 9.20833L57.5167 15.5479L62.5458 20.5771M42.5 0H35.4167V10.625H42.5M20.4 15.5479L14.025 9.20833L9.03125 14.1667L15.3708 20.5771L20.4 15.5479ZM0 42.5H10.625V35.4167H0M42.5 67.2917H35.4167V77.9167H42.5" fill="white"/>
</svg>
