<svg width="100" height="100" viewBox="0 0 100 100" fill="none" xmlns="http://www.w3.org/2000/svg">
<path d="M20.41 43.345C28.33 58.91 41.09 71.67 56.655 79.59L68.755 67.49C70.295 65.95 72.44 65.51 74.365 66.115C80.525 68.15 87.125 69.25 94 69.25C95.4587 69.25 96.8576 69.8295 97.8891 70.8609C98.9205 71.8924 99.5 73.2913 99.5 74.75V94C99.5 95.4587 98.9205 96.8576 97.8891 97.8891C96.8576 98.9205 95.4587 99.5 94 99.5C69.2023 99.5 45.4202 89.6491 27.8855 72.1145C10.3509 54.5798 0.5 30.7977 0.5 6C0.5 4.54131 1.07946 3.14236 2.11091 2.11091C3.14236 1.07946 4.54131 0.5 6 0.5H25.25C26.7087 0.5 28.1076 1.07946 29.1391 2.11091C30.1705 3.14236 30.75 4.54131 30.75 6C30.75 12.875 31.85 19.475 33.885 25.635C34.49 27.56 34.05 29.705 32.51 31.245L20.41 43.345Z" fill="#095D40"/>
</svg>
